<mxfile host="app.diagrams.net" modified="2021-02-18T07:45:53.440Z" agent="5.0 (Macintosh; Intel Mac OS X 10_15_7) AppleWebKit/537.36 (KHTML, like Gecko) Chrome/88.0.4324.150 Safari/537.36" etag="_iof-J0kzXoncJp39llg" version="14.4.2" type="github">
  <diagram id="tcSZJWRLkoQmAJ7EiQp0" name="Page-1">
    <mxGraphModel dx="3555" dy="1923" grid="0" gridSize="10" guides="1" tooltips="1" connect="1" arrows="1" fold="1" page="1" pageScale="1" pageWidth="200" pageHeight="300" math="0" shadow="1">
      <root>
        <mxCell id="0" />
        <mxCell id="1" parent="0" />
        <mxCell id="6qyk9QpOt-KV1l_fl7KS-1" value="Netflix App" style="ellipse;whiteSpace=wrap;html=1;" vertex="1" parent="1">
          <mxGeometry x="395" y="20" width="120" height="80" as="geometry" />
        </mxCell>
        <mxCell id="6qyk9QpOt-KV1l_fl7KS-2" value="TV Shows" style="rounded=1;whiteSpace=wrap;html=1;" vertex="1" parent="1">
          <mxGeometry x="75" y="250" width="120" height="60" as="geometry" />
        </mxCell>
        <mxCell id="6qyk9QpOt-KV1l_fl7KS-3" value="Movies" style="rounded=1;whiteSpace=wrap;html=1;" vertex="1" parent="1">
          <mxGeometry x="235" y="250" width="120" height="60" as="geometry" />
        </mxCell>
        <mxCell id="6qyk9QpOt-KV1l_fl7KS-36" style="edgeStyle=orthogonalEdgeStyle;rounded=0;orthogonalLoop=1;jettySize=auto;html=1;exitX=0.5;exitY=1;exitDx=0;exitDy=0;entryX=0.5;entryY=0;entryDx=0;entryDy=0;" edge="1" parent="1" source="6qyk9QpOt-KV1l_fl7KS-4" target="6qyk9QpOt-KV1l_fl7KS-20">
          <mxGeometry relative="1" as="geometry" />
        </mxCell>
        <mxCell id="6qyk9QpOt-KV1l_fl7KS-37" style="edgeStyle=orthogonalEdgeStyle;rounded=0;orthogonalLoop=1;jettySize=auto;html=1;exitX=0.5;exitY=1;exitDx=0;exitDy=0;entryX=0.5;entryY=0;entryDx=0;entryDy=0;" edge="1" parent="1" source="6qyk9QpOt-KV1l_fl7KS-4" target="6qyk9QpOt-KV1l_fl7KS-3">
          <mxGeometry relative="1" as="geometry" />
        </mxCell>
        <mxCell id="6qyk9QpOt-KV1l_fl7KS-38" style="edgeStyle=orthogonalEdgeStyle;rounded=0;orthogonalLoop=1;jettySize=auto;html=1;exitX=0.5;exitY=1;exitDx=0;exitDy=0;entryX=0.5;entryY=0;entryDx=0;entryDy=0;" edge="1" parent="1" source="6qyk9QpOt-KV1l_fl7KS-4" target="6qyk9QpOt-KV1l_fl7KS-2">
          <mxGeometry relative="1" as="geometry" />
        </mxCell>
        <mxCell id="6qyk9QpOt-KV1l_fl7KS-39" style="edgeStyle=orthogonalEdgeStyle;rounded=0;orthogonalLoop=1;jettySize=auto;html=1;exitX=0.5;exitY=1;exitDx=0;exitDy=0;entryX=0.5;entryY=0;entryDx=0;entryDy=0;" edge="1" parent="1" source="6qyk9QpOt-KV1l_fl7KS-4" target="6qyk9QpOt-KV1l_fl7KS-5">
          <mxGeometry relative="1" as="geometry" />
        </mxCell>
        <mxCell id="6qyk9QpOt-KV1l_fl7KS-40" style="edgeStyle=orthogonalEdgeStyle;rounded=0;orthogonalLoop=1;jettySize=auto;html=1;exitX=0.5;exitY=1;exitDx=0;exitDy=0;entryX=0.5;entryY=0;entryDx=0;entryDy=0;" edge="1" parent="1" source="6qyk9QpOt-KV1l_fl7KS-4" target="6qyk9QpOt-KV1l_fl7KS-6">
          <mxGeometry relative="1" as="geometry" />
        </mxCell>
        <mxCell id="6qyk9QpOt-KV1l_fl7KS-41" style="edgeStyle=orthogonalEdgeStyle;rounded=0;orthogonalLoop=1;jettySize=auto;html=1;exitX=0.5;exitY=1;exitDx=0;exitDy=0;entryX=0.5;entryY=0;entryDx=0;entryDy=0;" edge="1" parent="1" source="6qyk9QpOt-KV1l_fl7KS-4" target="6qyk9QpOt-KV1l_fl7KS-7">
          <mxGeometry relative="1" as="geometry" />
        </mxCell>
        <mxCell id="6qyk9QpOt-KV1l_fl7KS-42" style="edgeStyle=orthogonalEdgeStyle;rounded=0;orthogonalLoop=1;jettySize=auto;html=1;exitX=0.5;exitY=1;exitDx=0;exitDy=0;entryX=0.5;entryY=0;entryDx=0;entryDy=0;" edge="1" parent="1" source="6qyk9QpOt-KV1l_fl7KS-4" target="6qyk9QpOt-KV1l_fl7KS-11">
          <mxGeometry relative="1" as="geometry" />
        </mxCell>
        <mxCell id="6qyk9QpOt-KV1l_fl7KS-4" value="Home" style="rounded=1;whiteSpace=wrap;html=1;" vertex="1" parent="1">
          <mxGeometry x="395" y="140" width="120" height="60" as="geometry" />
        </mxCell>
        <mxCell id="6qyk9QpOt-KV1l_fl7KS-30" style="edgeStyle=orthogonalEdgeStyle;rounded=0;orthogonalLoop=1;jettySize=auto;html=1;exitX=0.5;exitY=1;exitDx=0;exitDy=0;entryX=0.5;entryY=0;entryDx=0;entryDy=0;" edge="1" parent="1" source="6qyk9QpOt-KV1l_fl7KS-5" target="6qyk9QpOt-KV1l_fl7KS-25">
          <mxGeometry relative="1" as="geometry" />
        </mxCell>
        <mxCell id="6qyk9QpOt-KV1l_fl7KS-5" value="Coming Soon" style="rounded=1;whiteSpace=wrap;html=1;" vertex="1" parent="1">
          <mxGeometry x="555" y="250" width="120" height="60" as="geometry" />
        </mxCell>
        <mxCell id="6qyk9QpOt-KV1l_fl7KS-29" style="edgeStyle=orthogonalEdgeStyle;rounded=0;orthogonalLoop=1;jettySize=auto;html=1;exitX=0.5;exitY=1;exitDx=0;exitDy=0;entryX=0.5;entryY=0;entryDx=0;entryDy=0;" edge="1" parent="1" source="6qyk9QpOt-KV1l_fl7KS-6" target="6qyk9QpOt-KV1l_fl7KS-26">
          <mxGeometry relative="1" as="geometry" />
        </mxCell>
        <mxCell id="6qyk9QpOt-KV1l_fl7KS-6" value="Search" style="rounded=1;whiteSpace=wrap;html=1;" vertex="1" parent="1">
          <mxGeometry x="715" y="250" width="120" height="60" as="geometry" />
        </mxCell>
        <mxCell id="6qyk9QpOt-KV1l_fl7KS-28" style="edgeStyle=orthogonalEdgeStyle;rounded=0;orthogonalLoop=1;jettySize=auto;html=1;exitX=1;exitY=0.5;exitDx=0;exitDy=0;" edge="1" parent="1" source="6qyk9QpOt-KV1l_fl7KS-7" target="6qyk9QpOt-KV1l_fl7KS-11">
          <mxGeometry relative="1" as="geometry" />
        </mxCell>
        <mxCell id="6qyk9QpOt-KV1l_fl7KS-7" value="Downloads" style="rounded=1;whiteSpace=wrap;html=1;" vertex="1" parent="1">
          <mxGeometry x="875" y="250" width="120" height="60" as="geometry" />
        </mxCell>
        <mxCell id="6qyk9QpOt-KV1l_fl7KS-43" style="edgeStyle=orthogonalEdgeStyle;rounded=0;orthogonalLoop=1;jettySize=auto;html=1;exitX=0.5;exitY=1;exitDx=0;exitDy=0;entryX=0.5;entryY=0;entryDx=0;entryDy=0;" edge="1" parent="1" source="6qyk9QpOt-KV1l_fl7KS-11" target="6qyk9QpOt-KV1l_fl7KS-13">
          <mxGeometry relative="1" as="geometry" />
        </mxCell>
        <mxCell id="6qyk9QpOt-KV1l_fl7KS-44" style="edgeStyle=orthogonalEdgeStyle;rounded=0;orthogonalLoop=1;jettySize=auto;html=1;exitX=0.5;exitY=1;exitDx=0;exitDy=0;entryX=0.5;entryY=0;entryDx=0;entryDy=0;" edge="1" parent="1" source="6qyk9QpOt-KV1l_fl7KS-11" target="6qyk9QpOt-KV1l_fl7KS-15">
          <mxGeometry relative="1" as="geometry" />
        </mxCell>
        <mxCell id="6qyk9QpOt-KV1l_fl7KS-45" style="edgeStyle=orthogonalEdgeStyle;rounded=0;orthogonalLoop=1;jettySize=auto;html=1;exitX=0.5;exitY=1;exitDx=0;exitDy=0;entryX=0.5;entryY=0;entryDx=0;entryDy=0;" edge="1" parent="1" source="6qyk9QpOt-KV1l_fl7KS-11" target="6qyk9QpOt-KV1l_fl7KS-16">
          <mxGeometry relative="1" as="geometry" />
        </mxCell>
        <mxCell id="6qyk9QpOt-KV1l_fl7KS-46" style="edgeStyle=orthogonalEdgeStyle;rounded=0;orthogonalLoop=1;jettySize=auto;html=1;exitX=0.5;exitY=1;exitDx=0;exitDy=0;entryX=0.5;entryY=0;entryDx=0;entryDy=0;" edge="1" parent="1" source="6qyk9QpOt-KV1l_fl7KS-11" target="6qyk9QpOt-KV1l_fl7KS-17">
          <mxGeometry relative="1" as="geometry" />
        </mxCell>
        <mxCell id="6qyk9QpOt-KV1l_fl7KS-47" style="edgeStyle=orthogonalEdgeStyle;rounded=0;orthogonalLoop=1;jettySize=auto;html=1;exitX=0.5;exitY=1;exitDx=0;exitDy=0;entryX=0.5;entryY=0;entryDx=0;entryDy=0;" edge="1" parent="1" source="6qyk9QpOt-KV1l_fl7KS-11" target="6qyk9QpOt-KV1l_fl7KS-18">
          <mxGeometry relative="1" as="geometry" />
        </mxCell>
        <mxCell id="6qyk9QpOt-KV1l_fl7KS-48" style="edgeStyle=orthogonalEdgeStyle;rounded=0;orthogonalLoop=1;jettySize=auto;html=1;exitX=0.5;exitY=1;exitDx=0;exitDy=0;entryX=0.5;entryY=0;entryDx=0;entryDy=0;" edge="1" parent="1" source="6qyk9QpOt-KV1l_fl7KS-11" target="6qyk9QpOt-KV1l_fl7KS-19">
          <mxGeometry relative="1" as="geometry" />
        </mxCell>
        <mxCell id="6qyk9QpOt-KV1l_fl7KS-11" value="Profile" style="rounded=1;whiteSpace=wrap;html=1;" vertex="1" parent="1">
          <mxGeometry x="1035" y="250" width="120" height="60" as="geometry" />
        </mxCell>
        <mxCell id="6qyk9QpOt-KV1l_fl7KS-13" value="Profiles" style="rounded=1;whiteSpace=wrap;html=1;" vertex="1" parent="1">
          <mxGeometry x="855" y="350" width="70" height="60" as="geometry" />
        </mxCell>
        <mxCell id="6qyk9QpOt-KV1l_fl7KS-14" value="Home" style="rounded=1;whiteSpace=wrap;html=1;" vertex="1" parent="1">
          <mxGeometry x="445" y="330" width="70" height="60" as="geometry" />
        </mxCell>
        <mxCell id="6qyk9QpOt-KV1l_fl7KS-15" value="Manage Profiles" style="rounded=1;whiteSpace=wrap;html=1;" vertex="1" parent="1">
          <mxGeometry x="935" y="350" width="70" height="60" as="geometry" />
        </mxCell>
        <mxCell id="6qyk9QpOt-KV1l_fl7KS-16" value="My List" style="rounded=1;whiteSpace=wrap;html=1;" vertex="1" parent="1">
          <mxGeometry x="1015" y="350" width="70" height="60" as="geometry" />
        </mxCell>
        <mxCell id="6qyk9QpOt-KV1l_fl7KS-17" value="App Settings" style="rounded=1;whiteSpace=wrap;html=1;" vertex="1" parent="1">
          <mxGeometry x="1095" y="350" width="70" height="60" as="geometry" />
        </mxCell>
        <mxCell id="6qyk9QpOt-KV1l_fl7KS-18" value="Help" style="rounded=1;whiteSpace=wrap;html=1;" vertex="1" parent="1">
          <mxGeometry x="1175" y="350" width="70" height="60" as="geometry" />
        </mxCell>
        <mxCell id="6qyk9QpOt-KV1l_fl7KS-19" value="Sign Out" style="rounded=0;whiteSpace=wrap;html=1;" vertex="1" parent="1">
          <mxGeometry x="1255" y="350" width="70" height="60" as="geometry" />
        </mxCell>
        <mxCell id="6qyk9QpOt-KV1l_fl7KS-31" style="edgeStyle=orthogonalEdgeStyle;rounded=0;orthogonalLoop=1;jettySize=auto;html=1;exitX=0.25;exitY=1;exitDx=0;exitDy=0;entryX=0;entryY=0.5;entryDx=0;entryDy=0;" edge="1" parent="1" source="6qyk9QpOt-KV1l_fl7KS-20" target="6qyk9QpOt-KV1l_fl7KS-14">
          <mxGeometry relative="1" as="geometry" />
        </mxCell>
        <mxCell id="6qyk9QpOt-KV1l_fl7KS-32" style="edgeStyle=orthogonalEdgeStyle;rounded=0;orthogonalLoop=1;jettySize=auto;html=1;exitX=0.25;exitY=1;exitDx=0;exitDy=0;entryX=0;entryY=0.5;entryDx=0;entryDy=0;" edge="1" parent="1" source="6qyk9QpOt-KV1l_fl7KS-20" target="6qyk9QpOt-KV1l_fl7KS-21">
          <mxGeometry relative="1" as="geometry" />
        </mxCell>
        <mxCell id="6qyk9QpOt-KV1l_fl7KS-33" style="edgeStyle=orthogonalEdgeStyle;rounded=0;orthogonalLoop=1;jettySize=auto;html=1;exitX=0.25;exitY=1;exitDx=0;exitDy=0;entryX=0;entryY=0.5;entryDx=0;entryDy=0;" edge="1" parent="1" source="6qyk9QpOt-KV1l_fl7KS-20" target="6qyk9QpOt-KV1l_fl7KS-22">
          <mxGeometry relative="1" as="geometry" />
        </mxCell>
        <mxCell id="6qyk9QpOt-KV1l_fl7KS-34" style="edgeStyle=orthogonalEdgeStyle;rounded=0;orthogonalLoop=1;jettySize=auto;html=1;exitX=0.25;exitY=1;exitDx=0;exitDy=0;entryX=0;entryY=0.5;entryDx=0;entryDy=0;" edge="1" parent="1" source="6qyk9QpOt-KV1l_fl7KS-20" target="6qyk9QpOt-KV1l_fl7KS-23">
          <mxGeometry relative="1" as="geometry" />
        </mxCell>
        <mxCell id="6qyk9QpOt-KV1l_fl7KS-35" style="edgeStyle=orthogonalEdgeStyle;rounded=0;orthogonalLoop=1;jettySize=auto;html=1;exitX=0.25;exitY=1;exitDx=0;exitDy=0;entryX=0;entryY=0.5;entryDx=0;entryDy=0;" edge="1" parent="1" source="6qyk9QpOt-KV1l_fl7KS-20" target="6qyk9QpOt-KV1l_fl7KS-24">
          <mxGeometry relative="1" as="geometry" />
        </mxCell>
        <mxCell id="6qyk9QpOt-KV1l_fl7KS-20" value="Categories" style="rounded=1;whiteSpace=wrap;html=1;" vertex="1" parent="1">
          <mxGeometry x="395" y="250" width="120" height="60" as="geometry" />
        </mxCell>
        <mxCell id="6qyk9QpOt-KV1l_fl7KS-21" value="My List" style="rounded=1;whiteSpace=wrap;html=1;" vertex="1" parent="1">
          <mxGeometry x="445" y="400" width="70" height="60" as="geometry" />
        </mxCell>
        <mxCell id="6qyk9QpOt-KV1l_fl7KS-22" value="Available for Download" style="rounded=1;whiteSpace=wrap;html=1;" vertex="1" parent="1">
          <mxGeometry x="445" y="470" width="70" height="60" as="geometry" />
        </mxCell>
        <mxCell id="6qyk9QpOt-KV1l_fl7KS-23" value="24 genres below" style="rounded=1;whiteSpace=wrap;html=1;" vertex="1" parent="1">
          <mxGeometry x="445" y="540" width="70" height="60" as="geometry" />
        </mxCell>
        <mxCell id="6qyk9QpOt-KV1l_fl7KS-24" value="Close" style="rounded=1;whiteSpace=wrap;html=1;" vertex="1" parent="1">
          <mxGeometry x="445" y="610" width="70" height="60" as="geometry" />
        </mxCell>
        <mxCell id="6qyk9QpOt-KV1l_fl7KS-25" value="Notifications" style="rounded=1;whiteSpace=wrap;html=1;" vertex="1" parent="1">
          <mxGeometry x="580" y="330" width="70" height="60" as="geometry" />
        </mxCell>
        <mxCell id="6qyk9QpOt-KV1l_fl7KS-26" value="Search Engine" style="rounded=1;whiteSpace=wrap;html=1;" vertex="1" parent="1">
          <mxGeometry x="740" y="330" width="70" height="60" as="geometry" />
        </mxCell>
        <mxCell id="6qyk9QpOt-KV1l_fl7KS-49" value="" style="endArrow=classic;html=1;exitX=1;exitY=0.5;exitDx=0;exitDy=0;" edge="1" parent="1" source="6qyk9QpOt-KV1l_fl7KS-23">
          <mxGeometry width="50" height="50" relative="1" as="geometry">
            <mxPoint x="705" y="660" as="sourcePoint" />
            <mxPoint x="575" y="570" as="targetPoint" />
          </mxGeometry>
        </mxCell>
        <mxCell id="6qyk9QpOt-KV1l_fl7KS-50" value="&lt;ul&gt;&lt;li&gt;&lt;span&gt;Action&lt;/span&gt;&lt;/li&gt;&lt;li&gt;&lt;span&gt;Anime&lt;/span&gt;&lt;/li&gt;&lt;li&gt;&lt;span&gt;Black History Month&lt;/span&gt;&lt;/li&gt;&lt;li&gt;&lt;span&gt;Children &amp;amp; Family&lt;/span&gt;&lt;/li&gt;&lt;li&gt;&lt;span&gt;Comedies&lt;/span&gt;&lt;/li&gt;&lt;li&gt;&lt;span&gt;Crime&lt;/span&gt;&lt;/li&gt;&lt;li&gt;&lt;span&gt;Critically Acclaimed&lt;/span&gt;&lt;/li&gt;&lt;li&gt;&lt;span&gt;Documentaries&lt;/span&gt;&lt;/li&gt;&lt;li&gt;&lt;span&gt;Dramas&lt;/span&gt;&lt;/li&gt;&lt;li&gt;&lt;span&gt;Fantasy&lt;/span&gt;&lt;/li&gt;&lt;li&gt;&lt;span&gt;Horror&lt;/span&gt;&lt;/li&gt;&lt;li&gt;&lt;span&gt;Independent&lt;/span&gt;&lt;/li&gt;&lt;li&gt;&lt;span&gt;LGBTQ&lt;/span&gt;&lt;/li&gt;&lt;li&gt;&lt;span&gt;Music &amp;amp; Musicals&lt;/span&gt;&lt;/li&gt;&lt;li&gt;&lt;span&gt;Reality&lt;/span&gt;&lt;/li&gt;&lt;li&gt;&lt;span&gt;Romance&lt;/span&gt;&lt;/li&gt;&lt;li&gt;&lt;span&gt;Sci-Fi&lt;/span&gt;&lt;/li&gt;&lt;li&gt;&lt;span&gt;Stand-Up&lt;/span&gt;&lt;/li&gt;&lt;li&gt;&lt;span&gt;Thrillers&lt;/span&gt;&lt;/li&gt;&lt;li&gt;&lt;span&gt;Audio Description&lt;/span&gt;&lt;/li&gt;&lt;/ul&gt;" style="text;html=1;strokeColor=none;fillColor=none;align=left;verticalAlign=top;whiteSpace=wrap;rounded=0;" vertex="1" parent="1">
          <mxGeometry x="555" y="540" width="140" height="340" as="geometry" />
        </mxCell>
      </root>
    </mxGraphModel>
  </diagram>
</mxfile>
